<?xml version="1.0" encoding="utf-8"?>
<!-- Generator: Adobe Illustrator 26.0.3, SVG Export Plug-In . SVG Version: 6.00 Build 0)  -->
<svg version="1.0" id="Layer_1" xmlns="http://www.w3.org/2000/svg" xmlns:xlink="http://www.w3.org/1999/xlink" x="0px" y="0px"
	 width="800.0px" height="800.0px" viewBox="0 0 800 800" enable-background="new 0 0 800 800"
	 xml:space="preserve">
<g>
	<polygon fill="#EF161F" points="295,482 295,582 195,482"/>
	<polygon fill="#EF161F" points="195,482 295,582 195,582"/>
	<g transform="translate(-40 90)">
		<g transform="scale(.2 .6)">
			<polygon fill="#EF161F" points="1125,653.33 1125,686.67 825,653.33"/>
			<polygon fill="#EF161F" points="825,653.33 1125,686.67 825,686.67"/>
		</g>
		<g transform="translate(0 70)">
			<g transform="scale(.2 .6)">
				<polygon fill="#EF161F" points="775,536.67 775,570 475,536.67	"/>
				<polygon fill="#EF161F" points="475,536.67 775,570 475,570	"/>
			</g>
		</g>
	</g>
	<g transform="translate(40 90)">
		<g transform="scale(.2 .6)">
			<polygon fill="#EF161F" points="725,786.67 725,820 425,786.67"/>
			<polygon fill="#EF161F" points="425,786.67 725,820 425,820"/>
		</g>
		<g transform="translate(0 70)">
			<g transform="scale(.2 .6)">
				<polygon fill="#EF161F" points="375,670 375,703.33 75,670	"/>
				<polygon fill="#EF161F" points="75,670 375,703.33 75,703.33	"/>
			</g>
		</g>
	</g>
	<g transform="translate(-90 -40)">
		<g transform="scale(.6 .2)">
			<polygon fill="#EF161F" points="641.67,2260 641.67,2560 608.33,2260"/>
			<polygon fill="#EF161F" points="608.33,2260 641.67,2560 608.33,2560"/>
		</g>
		<g transform="translate(-70 0)">
			<g transform="scale(.6 .2)">
				<polygon fill="#EF161F" points="758.33,1910 758.33,2210 725,1910	"/>
				<polygon fill="#EF161F" points="725,1910 758.33,2210 725,2210	"/>
			</g>
		</g>
	</g>
	<g transform="translate(90 -40)">
		<g transform="scale(.6 .2)">
			<polygon fill="#EF161F" points="341.67,3160 341.67,3460 308.33,3160"/>
			<polygon fill="#EF161F" points="308.33,3160 341.67,3460 308.33,3460"/>
		</g>
		<g transform="translate(70 0)">
			<g transform="scale(.6 .2)">
				<polygon fill="#EF161F" points="225,3510 225,3810 191.67,3510	"/>
				<polygon fill="#EF161F" points="191.67,3510 225,3810 191.67,3810	"/>
			</g>
		</g>
	</g>
</g>
<polygon fill="#7C7C7C" points="475,374 324,127 477,221 "/>
<polygon fill="#C4C4C4" points="476,402 323,153 324,127 475,374 "/>
<g>
	<polygon fill="#1CB9EA" points="580.12,394.67 683.56,384.38 580.12,505.28"/>
	<polygon fill="#1CB9EA" points="580.12,505.28 683.56,384.38 683.56,511.55"/>
	<g transform="translate(0 -100)">
		<g transform="rotate(45)">
			<g transform="scale(.5 .5)">
				<polygon fill="#1CB9EA" points="1438.44,-338.48 1542.02,-343.17 1457.35,-221.46	"/>
				<polygon fill="#1CB9EA" points="1457.35,-221.46 1542.02,-343.17 1556.76,-220.17	"/>
			</g>
		</g>
	</g>
	<g transform="translate(-40 90)">
		<g transform="scale(.2 .6)">
			<polygon fill="#1CB9EA" points="3100.59,710.57 3192.97,712.93 3100.59,821.19"/>
			<polygon fill="#1CB9EA" points="3100.59,821.19 3192.97,712.93 3192.97,826.5"/>
		</g>
		<g transform="translate(0 70)">
			<g transform="scale(.2 .6)">
				<polygon fill="#1CB9EA" points="3100.59,722.96 3192.97,728.76 3100.59,833.57	"/>
				<polygon fill="#1CB9EA" points="3100.59,833.57 3192.97,728.76 3192.97,842.33	"/>
			</g>
		</g>
	</g>
	<g transform="translate(40 90)">
		<g transform="scale(.2 .6)">
			<polygon fill="#1CB9EA" points="3102.32,720.82 3217.78,723.77 3102.32,844.29"/>
			<polygon fill="#1CB9EA" points="3102.32,844.29 3217.78,723.77 3217.78,850.93"/>
		</g>
		<g transform="translate(0 70)">
			<g transform="scale(.2 .6)">
				<polygon fill="#1CB9EA" points="3102.32,748.21 3217.78,755.46 3102.32,871.68	"/>
				<polygon fill="#1CB9EA" points="3102.32,871.68 3217.78,755.46 3217.78,882.63	"/>
			</g>
		</g>
	</g>
	<g transform="translate(-90 -40)">
		<g transform="scale(.6 .2)">
			<polygon fill="#1CB9EA" points="1046.97,2469.49 1084.44,2180.85 1071.04,2516.88"/>
			<polygon fill="#1CB9EA" points="1071.04,2516.88 1084.44,2180.85 1110.23,2223.27"/>
		</g>
		<g transform="translate(-70 0)">
			<g transform="scale(.6 .2)">
				<polygon fill="#1CB9EA" points="1122.97,2782.75 1157.63,2515.73 1145.25,2835.02	"/>
				<polygon fill="#1CB9EA" points="1145.25,2835.02 1157.63,2515.73 1181.44,2563.88	"/>
			</g>
		</g>
	</g>
	<g transform="translate(90 -40)">
		<g transform="scale(.6 .2)">
			<polygon fill="#1CB9EA" points="1010.71,2204.02 1022.91,1811.89 1052.71,2207.37"/>
			<polygon fill="#1CB9EA" points="1052.71,2207.37 1022.91,1811.89 1065.69,1802.92"/>
		</g>
		<g transform="translate(70 0)">
			<g transform="scale(.6 .2)">
				<polygon fill="#1CB9EA" points="908.3,1745.85 920.76,1345.33 951.21,1734.78	"/>
				<polygon fill="#1CB9EA" points="951.21,1734.78 920.76,1345.33 964.48,1321.41	"/>
			</g>
		</g>
	</g>
</g>
<g transform="translate(0 -100)">
	<g transform="rotate(45)">
		<g transform="scale(.5 .5)">
			<polygon fill="#EF161F" points="1511.59,-630.53 1511.59,-530.53 1411.59,-630.53"/>
			<polygon fill="#EF161F" points="1411.59,-630.53 1511.59,-530.53 1411.59,-530.53"/>
		</g>
	</g>
</g>
<polygon fill="#8E4717" points="323,680 307,680 307,127 323,127 323,259.67 "/>
<polygon fill="#8E4717" points="492,638 476,638 476,221 492,221 492,559.54 "/>
<polygon fill="#8E4717" points="492.19,223.01 484.19,236.87 307.77,135.01 315.77,121.16 429.49,186.81 "/>
<polygon fill="#8E4717" points="492,620.92 492,800 307.87,800 307.87,620.92 354.78,620.92 "/>
<path fill="#8E4717" d="M323,320.33"/>
</svg>
